<svg width="24" height="26" viewBox="0 0 24 26" fill="none" xmlns="http://www.w3.org/2000/svg">
<path fill-rule="evenodd" clip-rule="evenodd" d="M8.29102 0.458252C8.77427 0.458252 9.16602 0.850003 9.16602 1.33325V2.80396C9.94679 2.79159 10.8143 2.79159 11.7781 2.79159H11.8039C12.7677 2.79159 13.6352 2.79159 14.416 2.80396V1.33325C14.416 0.850003 14.8078 0.458252 15.291 0.458252C15.7743 0.458252 16.166 0.850003 16.166 1.33325V2.86576C17.9299 2.97635 19.285 3.26216 20.4007 4.07276C20.9702 4.48653 21.4711 4.98736 21.8848 5.55686C22.8203 6.84446 23.0569 8.45094 23.1318 10.6366C23.166 11.6367 23.166 12.8003 23.166 14.1537V14.1794C23.166 15.5329 23.166 16.6965 23.1318 17.6965C23.0569 19.8822 22.8203 21.4887 21.8848 22.7763C21.4711 23.3458 20.9702 23.8466 20.4007 24.2604C19.1131 25.1959 17.5067 25.4324 15.321 25.5073C14.3208 25.5416 13.1571 25.5416 11.8036 25.5416H11.7382C9.59559 25.5416 7.91606 25.5416 6.58357 25.3972C5.22378 25.2499 4.122 24.9439 3.18129 24.2604C2.61179 23.8466 2.11096 23.3458 1.69719 22.7763C1.01373 21.8356 0.707689 20.7338 0.560365 19.374C0.415999 18.0415 0.416006 16.362 0.416016 14.2194L0.416016 14.1537C0.416016 12.8003 0.416015 11.6367 0.450279 10.6366C0.525163 8.45094 0.761694 6.84446 1.69719 5.55686C2.11096 4.98736 2.61179 4.48653 3.18129 4.07276C4.29699 3.26216 5.65211 2.97635 7.41602 2.86576V1.33325C7.41602 0.850003 7.80777 0.458252 8.29102 0.458252ZM7.41602 4.62004C5.82695 4.72933 4.90975 4.98008 4.20991 5.48854C3.78898 5.79437 3.4188 6.16455 3.11297 6.58548C2.60451 7.28532 2.35376 8.20252 2.24447 9.79159H21.3376C21.2283 8.20252 20.9775 7.28532 20.4691 6.58548C20.1632 6.16455 19.7931 5.79437 19.3721 5.48854C18.6723 4.98008 17.7551 4.72933 16.166 4.62004V4.83325C16.166 5.3165 15.7743 5.70825 15.291 5.70825C14.8078 5.70825 14.416 5.3165 14.416 4.83325V4.55417C13.6465 4.54164 12.7798 4.54159 11.791 4.54159C10.8022 4.54159 9.93553 4.54164 9.16602 4.55417V4.83325C9.16602 5.3165 8.77427 5.70825 8.29102 5.70825C7.80777 5.70825 7.41602 5.3165 7.41602 4.83325V4.62004ZM21.4034 11.5416H2.1786C2.16607 12.3111 2.16602 13.1778 2.16602 14.1666C2.16602 16.3734 2.16722 17.9583 2.30018 19.1855C2.43138 20.3964 2.68237 21.155 3.11297 21.7477C3.4188 22.1686 3.78898 22.5388 4.20991 22.8446C4.80259 23.2752 5.56117 23.5262 6.77207 23.6574C7.99934 23.7904 9.58418 23.7916 11.791 23.7916C12.7808 23.7916 13.6481 23.7915 14.4181 23.779C14.4232 23.2252 14.4405 22.8175 14.4986 22.4505C14.9532 19.5801 17.2045 17.3288 20.0749 16.8742C20.442 16.816 20.8496 16.7988 21.4034 16.7937C21.416 16.0237 21.416 15.1563 21.416 14.1666C21.416 13.1778 21.416 12.3111 21.4034 11.5416ZM21.3373 18.5448C20.8649 18.5503 20.5879 18.5647 20.3487 18.6026C18.2271 18.9387 16.5631 20.6026 16.2271 22.7243C16.1892 22.9635 16.1747 23.2405 16.1693 23.7129C17.7563 23.6035 18.6728 23.3527 19.3721 22.8446C19.7931 22.5388 20.1632 22.1686 20.4691 21.7477C20.9772 21.0483 21.2279 20.1319 21.3373 18.5448Z" fill="#272A2D"/>
<path d="M7.41602 15.3333C7.41602 14.85 7.80777 14.4583 8.29102 14.4583H15.291C15.7743 14.4583 16.166 14.85 16.166 15.3333C16.166 15.8165 15.7743 16.2083 15.291 16.2083H8.29102C7.80777 16.2083 7.41602 15.8165 7.41602 15.3333Z" fill="#0074E0"/>
</svg>
