<svg width="24" height="26" viewBox="0 0 24 26" fill="none" xmlns="http://www.w3.org/2000/svg">
<path fill-rule="evenodd" clip-rule="evenodd" d="M8.45508 0.458252C8.93833 0.458252 9.33008 0.850003 9.33008 1.33325V2.80396C10.1109 2.79158 10.9784 2.79159 11.9422 2.79159H11.968C12.9318 2.79159 13.7993 2.79158 14.5801 2.80396V1.33325C14.5801 0.850003 14.9718 0.458252 15.4551 0.458252C15.9383 0.458252 16.3301 0.850003 16.3301 1.33325V2.86576C18.094 2.97635 19.4491 3.26216 20.5648 4.07276C21.1343 4.48653 21.6351 4.98736 22.0489 5.55686C22.9844 6.84446 23.2209 8.45094 23.2958 10.6366C23.3301 11.6367 23.3301 12.8003 23.3301 14.1537V14.1794C23.3301 15.5329 23.3301 16.6965 23.2958 17.6965C23.2209 19.8822 22.9844 21.4887 22.0489 22.7763C21.6351 23.3458 21.1343 23.8466 20.5648 24.2604C19.2772 25.1959 17.6707 25.4324 15.485 25.5073C14.4849 25.5416 13.3212 25.5416 11.9677 25.5416H11.9023C9.75965 25.5416 8.08012 25.5416 6.74763 25.3972C5.38784 25.2499 4.28606 24.9439 3.34535 24.2604C2.77585 23.8466 2.27502 23.3458 1.86126 22.7763C1.17779 21.8356 0.871752 20.7338 0.724428 19.374C0.580061 18.0415 0.580069 16.362 0.580078 14.2194L0.580078 14.1537C0.580078 12.8003 0.580078 11.6367 0.614341 10.6366C0.689226 8.45094 0.925757 6.84446 1.86126 5.55686C2.27502 4.98736 2.77585 4.48653 3.34535 4.07276C4.46106 3.26216 5.81617 2.97635 7.58008 2.86576V1.33325C7.58008 0.850003 7.97183 0.458252 8.45508 0.458252ZM7.58008 4.62004C5.99102 4.72933 5.07382 4.98008 4.37398 5.48854C3.95304 5.79437 3.58286 6.16455 3.27704 6.58548C2.76857 7.28532 2.51782 8.20252 2.40854 9.79158H21.5016C21.3923 8.20252 21.1416 7.28532 20.6331 6.58548C20.3273 6.16455 19.9571 5.79437 19.5362 5.48854C18.8363 4.98008 17.9191 4.72933 16.3301 4.62004V4.83325C16.3301 5.3165 15.9383 5.70825 15.4551 5.70825C14.9718 5.70825 14.5801 5.3165 14.5801 4.83325V4.55417C13.8106 4.54164 12.9439 4.54158 11.9551 4.54158C10.9663 4.54158 10.0996 4.54164 9.33008 4.55417V4.83325C9.33008 5.3165 8.93833 5.70825 8.45508 5.70825C7.97183 5.70825 7.58008 5.3165 7.58008 4.83325V4.62004ZM21.5675 11.5416H2.34266C2.33014 12.3111 2.33008 13.1778 2.33008 14.1666C2.33008 16.3734 2.33128 17.9583 2.46425 19.1855C2.59544 20.3964 2.84643 21.155 3.27704 21.7477C3.58286 22.1686 3.95304 22.5388 4.37398 22.8446C4.96665 23.2752 5.72523 23.5262 6.93613 23.6574C8.1634 23.7904 9.74824 23.7916 11.9551 23.7916C12.9448 23.7916 13.8122 23.7915 14.5822 23.779C14.5873 23.2252 14.6045 22.8175 14.6627 22.4505C15.1173 19.5801 17.3686 17.3288 20.239 16.8742C20.606 16.816 21.0137 16.7988 21.5675 16.7937C21.58 16.0237 21.5801 15.1563 21.5801 14.1666C21.5801 13.1778 21.58 12.3111 21.5675 11.5416ZM21.5014 18.5448C21.029 18.5503 20.752 18.5647 20.5128 18.6026C18.3911 18.9387 16.7272 20.6026 16.3911 22.7243C16.3532 22.9635 16.3388 23.2405 16.3333 23.7129C17.9204 23.6035 18.8368 23.3527 19.5362 22.8446C19.9571 22.5388 20.3273 22.1686 20.6331 21.7477C21.1412 21.0483 21.392 20.1319 21.5014 18.5448Z" fill="#0074E0"/>
<path fill-rule="evenodd" clip-rule="evenodd" d="M21.5675 11.5416H2.34266C2.33014 12.3111 2.33008 13.1777 2.33008 14.1666C2.33008 16.3734 2.33128 17.9582 2.46425 19.1855C2.59544 20.3964 2.84643 21.155 3.27704 21.7477C3.58286 22.1686 3.95304 22.5388 4.37398 22.8446C4.96665 23.2752 5.72523 23.5262 6.93613 23.6574C8.1634 23.7904 9.74824 23.7916 11.9551 23.7916C12.9448 23.7916 13.8122 23.7915 14.5822 23.7789C14.5873 23.2252 14.6045 22.8175 14.6627 22.4505C15.1173 19.58 17.3686 17.3288 20.239 16.8741C20.606 16.816 21.0137 16.7988 21.5675 16.7937C21.58 16.0236 21.5801 15.1563 21.5801 14.1666C21.5801 13.1777 21.58 12.3111 21.5675 11.5416ZM21.5014 18.5448C21.029 18.5503 20.752 18.5647 20.5128 18.6026C18.3911 18.9386 16.7272 20.6026 16.3911 22.7242C16.3532 22.9634 16.3388 23.2404 16.3333 23.7129C17.9204 23.6035 18.8368 23.3527 19.5362 22.8446C19.9571 22.5388 20.3273 22.1686 20.6331 21.7477C21.1412 21.0483 21.392 20.1319 21.5014 18.5448Z" fill="#0074E0"/>
<path fill-rule="evenodd" clip-rule="evenodd" d="M21.5001 18.5448C21.0277 18.5503 20.7507 18.5647 20.5115 18.6026C18.3898 18.9386 16.7259 20.6026 16.3898 22.7242C16.3519 22.9634 16.3375 23.2404 16.332 23.7129C17.9191 23.6035 18.8355 23.3527 19.5349 22.8446C19.9558 22.5388 20.326 22.1686 20.6318 21.7477C21.1399 21.0483 21.3907 20.1319 21.5001 18.5448Z" fill="white"/>
<path d="M7.58008 15.3333C7.58008 14.85 7.97183 14.4583 8.45508 14.4583H15.4551C15.9383 14.4583 16.3301 14.85 16.3301 15.3333C16.3301 15.8165 15.9383 16.2083 15.4551 16.2083H8.45508C7.97183 16.2083 7.58008 15.8165 7.58008 15.3333Z" fill="white"/>
</svg>
