<svg width="24" height="26" viewBox="0 0 24 26" fill="none" xmlns="http://www.w3.org/2000/svg">
<path fill-rule="evenodd" clip-rule="evenodd" d="M8.29199 0.458252C8.77524 0.458252 9.16699 0.850003 9.16699 1.33325V2.80396C9.94777 2.79159 10.8153 2.79159 11.7791 2.79159H11.8049C12.7687 2.79159 13.6362 2.79159 14.417 2.80396V1.33325C14.417 0.850003 14.8087 0.458252 15.292 0.458252C15.7752 0.458252 16.167 0.850003 16.167 1.33325V2.86576C17.9309 2.97635 19.286 3.26216 20.4017 4.07276C20.9712 4.48653 21.472 4.98736 21.8858 5.55686C22.8213 6.84446 23.0578 8.45094 23.1327 10.6366C23.167 11.6367 23.167 12.8003 23.167 14.1537V14.1794C23.167 15.5329 23.167 16.6965 23.1327 17.6965C23.0578 19.8822 22.8213 21.4887 21.8858 22.7763C21.472 23.3458 20.9712 23.8466 20.4017 24.2604C19.1141 25.1959 17.5076 25.4324 15.322 25.5073C14.3218 25.5416 13.1581 25.5416 11.8046 25.5416H11.7392C9.59656 25.5416 7.91703 25.5416 6.58455 25.3972C5.22475 25.2499 4.12298 24.9439 3.18227 24.2604C2.61276 23.8466 2.11194 23.3458 1.69817 22.7763C1.0147 21.8356 0.708666 20.7338 0.561342 19.374C0.416975 18.0415 0.416983 16.362 0.416992 14.2194L0.416992 14.1537C0.416992 12.8003 0.416992 11.6367 0.451255 10.6366C0.52614 8.45094 0.762671 6.84446 1.69817 5.55686C2.11194 4.98736 2.61276 4.48653 3.18227 4.07276C4.29797 3.26216 5.65309 2.97635 7.41699 2.86576V1.33325C7.41699 0.850003 7.80874 0.458252 8.29199 0.458252ZM7.41699 4.62004C5.82793 4.72933 4.91073 4.98008 4.21089 5.48854C3.78995 5.79437 3.41978 6.16455 3.11395 6.58548C2.60549 7.28532 2.35473 8.20252 2.24545 9.79159H21.3385C21.2292 8.20252 20.9785 7.28532 20.47 6.58548C20.1642 6.16455 19.794 5.79437 19.3731 5.48854C18.6733 4.98008 17.7561 4.72933 16.167 4.62004V4.83325C16.167 5.3165 15.7752 5.70825 15.292 5.70825C14.8087 5.70825 14.417 5.3165 14.417 4.83325V4.55417C13.6475 4.54164 12.7808 4.54159 11.792 4.54159C10.8032 4.54159 9.93651 4.54164 9.16699 4.55417V4.83325C9.16699 5.3165 8.77524 5.70825 8.29199 5.70825C7.80874 5.70825 7.41699 5.3165 7.41699 4.83325V4.62004ZM21.4044 11.5416H2.17958C2.16705 12.3111 2.16699 13.1778 2.16699 14.1666C2.16699 16.3734 2.16819 17.9583 2.30116 19.1855C2.43235 20.3964 2.68335 21.155 3.11395 21.7477C3.41978 22.1686 3.78995 22.5388 4.21089 22.8446C4.80356 23.2752 5.56215 23.5262 6.77304 23.6574C8.00032 23.7904 9.58516 23.7916 11.792 23.7916C12.7817 23.7916 13.6491 23.7915 14.4191 23.779C14.4242 23.2252 14.4414 22.8175 14.4996 22.4505C14.9542 19.5801 17.2055 17.3288 20.0759 16.8742C20.443 16.816 20.8506 16.7988 21.4044 16.7937C21.4169 16.0237 21.417 15.1563 21.417 14.1666C21.417 13.1778 21.4169 12.3111 21.4044 11.5416ZM21.3383 18.5448C20.8659 18.5503 20.5889 18.5647 20.3497 18.6026C18.228 18.9387 16.5641 20.6026 16.228 22.7243C16.1902 22.9635 16.1757 23.2405 16.1702 23.7129C17.7573 23.6035 18.6737 23.3527 19.3731 22.8446C19.794 22.5388 20.1642 22.1686 20.47 21.7477C20.9781 21.0483 21.2289 20.1319 21.3383 18.5448Z" fill="white"/>
<path d="M7.41699 15.3333C7.41699 14.85 7.80874 14.4583 8.29199 14.4583H15.292C15.7752 14.4583 16.167 14.85 16.167 15.3333C16.167 15.8165 15.7752 16.2083 15.292 16.2083H8.29199C7.80874 16.2083 7.41699 15.8165 7.41699 15.3333Z" fill="#0074E0"/>
</svg>
