<svg width="27" height="27" viewBox="0 0 27 27" fill="none" xmlns="http://www.w3.org/2000/svg">
<path fill-rule="evenodd" clip-rule="evenodd" d="M13.3658 0.462761C13.2019 0.456749 13.0378 0.456749 12.874 0.462761C11.792 0.502452 10.8178 0.870359 9.74955 1.48279C8.70857 2.07961 7.51013 2.95034 5.98951 4.05514L5.90686 4.1152C4.38623 5.21999 3.18776 6.09072 2.29846 6.89632C1.38591 7.723 0.734952 8.53588 0.362865 9.5526C0.3065 9.70662 0.255802 9.86265 0.210873 10.0204C-0.0857171 11.0616 -0.0368773 12.1019 0.215485 13.3071C0.461415 14.4815 0.919192 15.8904 1.50003 17.678L1.5316 17.7752C2.11241 19.5628 2.57018 20.9716 3.06155 22.0663C3.56577 23.1897 4.1377 24.06 4.98968 24.728C5.11875 24.8293 5.25148 24.9257 5.3876 25.0172C6.28624 25.621 7.29068 25.896 8.51485 26.0284C9.70783 26.1574 11.1892 26.1574 13.0688 26.1574H13.171C15.0506 26.1574 16.5319 26.1574 17.7249 26.0284C18.9491 25.896 19.9535 25.621 20.8522 25.0172C20.9883 24.9257 21.121 24.8292 21.2501 24.728C22.1021 24.06 22.674 23.1897 23.1782 22.0663C23.6696 20.9716 24.1274 19.5627 24.7082 17.7751L24.7398 17.6779C25.3205 15.8905 25.7784 14.4815 26.0243 13.3071C26.2766 12.1019 26.3255 11.0616 26.0289 10.0204C25.984 9.86265 25.9333 9.70662 25.8769 9.5526C25.5048 8.53588 24.8538 7.723 23.9413 6.89632C23.052 6.09071 21.8535 5.21999 20.3329 4.11519L20.2502 4.05512C18.7296 2.95033 17.5312 2.07961 16.4902 1.48279C15.422 0.870359 14.4478 0.502452 13.3658 0.462761ZM12.9381 2.21159C13.0592 2.20714 13.1805 2.20714 13.3017 2.21159C13.9963 2.23707 14.6882 2.46687 15.6198 3.00097C16.5692 3.54529 17.6919 4.35954 19.263 5.50096C20.834 6.64238 21.9553 7.45855 22.7664 8.19328C23.5622 8.91423 23.9946 9.50123 24.2335 10.154C24.2752 10.2679 24.3126 10.3832 24.3458 10.4998C24.5363 11.1683 24.5315 11.8974 24.3114 12.9484C24.0871 14.0195 23.6597 15.3389 23.0596 17.1858C22.4595 19.0327 22.0298 20.3513 21.5817 21.3497C21.1419 22.3294 20.7173 22.922 20.1702 23.3509C20.0749 23.4257 19.9767 23.497 19.8761 23.5646C19.2991 23.9523 18.6043 24.1731 17.5367 24.2886C16.4487 24.4062 15.0618 24.4074 13.1199 24.4074C11.178 24.4074 9.79106 24.4062 8.70304 24.2886C7.63543 24.1731 6.94062 23.9523 6.36363 23.5646C6.26301 23.497 6.16491 23.4257 6.06952 23.3509C5.52249 22.922 5.09782 22.3294 4.65809 21.3497C4.20995 20.3513 3.78024 19.0326 3.18016 17.1858C2.58008 15.3389 2.15263 14.0195 1.92834 12.9484C1.70825 11.8974 1.7035 11.1683 1.89393 10.4998C1.92714 10.3832 1.96461 10.2679 2.00627 10.154C2.24517 9.50123 2.67753 8.91423 3.47337 8.19328C4.28442 7.45855 5.40577 6.64238 6.9768 5.50096C8.54782 4.35954 9.67057 3.54529 10.62 3.00097C11.5516 2.46687 12.2434 2.23707 12.9381 2.21159Z" fill="#272A2D"/>
<path d="M10.7871 18.9145C10.3039 18.9145 9.91211 19.3062 9.91211 19.7895C9.91211 20.2727 10.3039 20.6645 10.7871 20.6645H15.4538C15.937 20.6645 16.3288 20.2727 16.3288 19.7895C16.3288 19.3062 15.937 18.9145 15.4538 18.9145H10.7871Z" fill="#0074E0"/>
</svg>
