<svg width="26" height="25" viewBox="0 0 26 25" fill="none" xmlns="http://www.w3.org/2000/svg">
<path fill-rule="evenodd" clip-rule="evenodd" d="M6.46248 3.79307C3.3512 6.05355 1.79556 7.18379 1.18457 8.85331C1.13555 8.98724 1.09147 9.12292 1.0524 9.26008C0.56538 10.9699 1.15958 12.7987 2.34799 16.4562C3.53639 20.1137 4.1306 21.9425 5.5296 23.0395C5.64183 23.1275 5.75724 23.2113 5.87562 23.2909C7.35124 24.2824 9.27412 24.2824 13.1199 24.2824C16.9656 24.2824 18.8885 24.2824 20.3641 23.2909C20.4825 23.2113 20.5979 23.1275 20.7102 23.0395C22.1092 21.9425 22.7034 20.1137 23.8918 16.4562C25.0802 12.7987 25.6744 10.9699 25.1874 9.26008C25.1483 9.12292 25.1042 8.98724 25.0552 8.85331C24.4442 7.18379 22.8886 6.05356 19.7773 3.79308C16.666 1.5326 15.1103 0.402348 13.3337 0.337173C13.1912 0.331945 13.0485 0.331945 12.906 0.337173C11.1294 0.402348 9.57376 1.53259 6.46248 3.79307ZM10.7865 17.9145C10.3033 17.9145 9.91154 18.3063 9.91154 18.7895C9.91154 19.2728 10.3033 19.6645 10.7865 19.6645H15.4532C15.9365 19.6645 16.3282 19.2728 16.3282 18.7895C16.3282 18.3063 15.9365 17.9145 15.4532 17.9145H10.7865Z" fill="#0074E0"/>
</svg>
