<svg width="26" height="24" viewBox="0 0 26 24" fill="none" xmlns="http://www.w3.org/2000/svg">
<path d="M16.9623 0.63347C16.2557 0.625 15.4774 0.625 14.6222 0.625H12.2324C10.0897 0.624991 8.4102 0.624983 7.07771 0.76935C5.71792 0.916674 4.61614 1.22271 3.67543 1.90618C3.10593 2.31995 2.6051 2.82077 2.19133 3.39027C2.01096 3.63854 1.85529 3.90023 1.72143 4.17804C1.2895 5.07442 1.09699 6.11424 1.00321 7.35555C0.910151 8.58734 0.910153 10.0992 0.910156 11.9661V12.0528C0.910147 14.1954 0.910139 15.875 1.05451 17.2074C1.20183 18.5672 1.50787 19.669 2.19133 20.6097C2.6051 21.1792 3.10593 21.6801 3.67543 22.0938C4.61614 22.7773 5.71792 23.0833 7.07771 23.2306C8.41018 23.375 10.0897 23.375 12.2323 23.375H14.6713C16.8139 23.375 18.4935 23.375 19.8259 23.2306C21.1857 23.0833 22.2875 22.7773 23.2282 22.0938C23.7977 21.6801 24.2985 21.1792 24.7123 20.6097C25.3958 19.669 25.7018 18.5672 25.8491 17.2074C25.9935 15.875 25.9935 14.1955 25.9935 12.0529V11.9961C25.9935 11.1288 25.9935 10.3406 25.9847 9.62595C25.9787 9.14274 25.5821 8.75586 25.0989 8.76184C24.6157 8.76781 24.2288 9.16438 24.2348 9.64759C24.2435 10.3503 24.2435 11.1283 24.2435 12C24.2435 14.2068 24.2423 15.7917 24.1093 17.0189C23.9781 18.2298 23.7271 18.9884 23.2965 19.5811C22.9907 20.002 22.6205 20.3722 22.1996 20.678C21.6069 21.1086 20.8483 21.3596 19.6374 21.4908C18.4102 21.6238 16.8253 21.625 14.6185 21.625H12.2852C10.0783 21.625 8.49348 21.6238 7.26621 21.4908C6.05531 21.3596 5.29673 21.1086 4.70405 20.678C4.28312 20.3722 3.91294 20.002 3.60711 19.5811C3.17651 18.9884 2.92552 18.2298 2.79432 17.0189C2.66136 15.7917 2.66016 14.2068 2.66016 12C2.66016 10.0923 2.66073 8.64575 2.74824 7.48738C2.78553 6.99373 2.83784 6.56754 2.90832 6.19394L4.63084 7.91645C6.53516 9.8208 8.02754 11.3132 9.34852 12.3211C10.7006 13.3527 11.9755 13.9588 13.4518 13.9588C15.7046 13.9588 17.5203 12.5406 19.8906 10.2684C20.2395 9.93404 20.2512 9.38014 19.9168 9.03128C19.5824 8.68242 19.0285 8.6707 18.6797 9.0051C16.2553 11.3289 14.9139 12.2088 13.4518 12.2088C12.5119 12.2088 11.6065 11.8426 10.41 10.9298C9.19342 10.0015 7.7829 8.59364 5.82096 6.6317L3.60755 4.41829C3.9133 3.99761 4.28332 3.62764 4.70406 3.32196C5.29673 2.89136 6.05531 2.64036 7.26621 2.50917C8.49348 2.3762 10.0783 2.375 12.2852 2.375H14.6185C15.478 2.375 16.2463 2.37501 16.9413 2.38334C17.4246 2.38914 17.821 2.00211 17.8268 1.5189C17.8326 1.03568 17.4455 0.639263 16.9623 0.63347Z" fill="white"/>
<path fill-rule="evenodd" clip-rule="evenodd" d="M22.7845 0.625C21.0126 0.625 19.5762 2.06142 19.5762 3.83333C19.5762 5.60525 21.0126 7.04167 22.7845 7.04167C24.5564 7.04167 25.9928 5.60525 25.9928 3.83333C25.9928 2.06142 24.5564 0.625 22.7845 0.625ZM21.3262 3.83333C21.3262 3.02792 21.9791 2.375 22.7845 2.375C23.5899 2.375 24.2428 3.02792 24.2428 3.83333C24.2428 4.63875 23.5899 5.29167 22.7845 5.29167C21.9791 5.29167 21.3262 4.63875 21.3262 3.83333Z" fill="#0074E0"/>
</svg>
