<svg width="20" height="20" viewBox="0 0 20 20" fill="none" xmlns="http://www.w3.org/2000/svg">
<path d="M3.33398 7.22238H6.11176V16.6668H3.33398V7.22238ZM4.71454 6.11127H4.69898C3.8701 6.11127 3.33398 5.4935 3.33398 4.72183C3.33398 3.9335 3.88676 3.3335 4.73065 3.3335C5.57565 3.3335 6.09621 3.9335 6.11176 4.72183C6.11176 5.49294 5.57565 6.11127 4.71454 6.11127ZM16.6673 16.6668H13.8895V11.6118C13.8895 10.3907 13.209 9.55738 12.1162 9.55738C11.2823 9.55738 10.8312 10.1196 10.6123 10.6629C10.5323 10.8574 10.5562 11.3952 10.5562 11.6668V16.6668H7.77843V7.22238H10.5562V8.67572C10.9568 8.05572 11.584 7.22238 13.1884 7.22238C15.1762 7.22238 16.6668 8.47238 16.6668 11.2635L16.6673 16.6668Z" fill="white"/>
</svg>
