<svg width="22" height="25" viewBox="0 0 22 25" fill="none" xmlns="http://www.w3.org/2000/svg">
<path fill-rule="evenodd" clip-rule="evenodd" d="M9.95128 0.958374C5.98979 0.958374 2.92475 4.43041 3.41611 8.3613L3.50869 9.10195C3.64416 10.1857 3.24828 11.2683 2.4456 12.009C0.782309 13.5438 0.320198 15.9868 1.30796 18.0231L1.42853 18.2717C2.29899 20.0662 4.06642 21.2415 6.03949 21.3644L6.25915 21.7409C7.44075 23.7665 9.28175 24.875 11.215 24.875C13.1482 24.875 14.9892 23.7665 16.1708 21.7409L16.3939 21.3585C18.0514 21.2275 19.5628 20.3266 20.4642 18.9103C21.8434 16.7433 21.4781 13.9005 19.5959 12.1525L19.5447 12.1049C19.3153 11.8919 19.117 11.6531 18.9522 11.3953C18.6919 10.9881 18.1509 10.869 17.7437 11.1293C17.3365 11.3896 17.2174 11.9306 17.4777 12.3378C17.7215 12.7192 18.0148 13.0724 18.3538 13.3873L18.405 13.4348C19.6684 14.6081 19.9135 16.5162 18.9878 17.9707C18.3321 19.0011 17.1953 19.625 15.974 19.625H15.8982C15.8949 19.625 15.8917 19.6249 15.8884 19.6249C15.8811 19.6249 15.8739 19.6249 15.8667 19.625H6.56325C6.55274 19.6249 6.54222 19.6248 6.5317 19.625H6.38302C4.94385 19.625 3.63117 18.8028 3.00307 17.5079L2.8825 17.2594C2.2314 15.9171 2.53601 14.3068 3.63239 13.2951C4.85012 12.1714 5.4507 10.5291 5.24518 8.88489L5.1526 8.14424C4.7918 5.25784 7.04242 2.70837 9.95128 2.70837H11.938C13.243 2.70837 14.4128 3.21895 15.2777 4.04385C15.6274 4.37738 16.1813 4.36427 16.5148 4.01457C16.8483 3.66487 16.8352 3.111 16.4855 2.77748C15.3094 1.65574 13.7121 0.958374 11.938 0.958374H9.95128ZM11.215 23.125C10.1403 23.125 8.99372 22.5857 8.10782 21.375H14.3221C13.4362 22.5857 12.2896 23.125 11.215 23.125Z" fill="white"/>
<path d="M19.3815 7.66671C19.3815 8.95537 18.3368 10 17.0482 10C15.7595 10 14.7148 8.95537 14.7148 7.66671C14.7148 6.37804 15.7595 5.33337 17.0482 5.33337C18.3368 5.33337 19.3815 6.37804 19.3815 7.66671Z" fill="#F53125"/>
</svg>
