<svg width="16" height="16" viewBox="0 0 16 16" fill="none" xmlns="http://www.w3.org/2000/svg">
<path d="M0.6875 1.09149V14.9079C0.687593 14.9379 0.696533 14.9672 0.7132 14.9921C0.729868 15.017 0.75352 15.0364 0.781191 15.0479C0.808862 15.0595 0.83932 15.0626 0.868746 15.0569C0.898172 15.0511 0.925256 15.0369 0.946602 15.0158L8.14062 8.00004L0.946602 0.983559C0.925256 0.962514 0.898172 0.948239 0.868746 0.942524C0.83932 0.93681 0.808862 0.93991 0.781191 0.951437C0.75352 0.962963 0.729868 0.982403 0.7132 1.00732C0.696533 1.03223 0.687593 1.06151 0.6875 1.09149ZM11.157 5.11723L2.13664 0.147544L2.13102 0.14438C1.97562 0.0600047 1.82797 0.270239 1.95523 0.392583L9.02621 7.15383L11.157 5.11723ZM1.95594 15.6075C1.82797 15.7298 1.97562 15.9401 2.13172 15.8557L2.13734 15.8525L11.157 10.8829L9.02621 8.84555L1.95594 15.6075ZM14.7985 7.12114L12.2796 5.73387L9.91109 8.00004L12.2796 10.2652L14.7985 8.87895C15.4837 8.50032 15.4837 7.49977 14.7985 7.12114Z" fill="white"/>
</svg>
