<svg width="20" height="22" viewBox="0 0 20 22" fill="none" xmlns="http://www.w3.org/2000/svg">
<path d="M0.25 1.78898V20.2109C0.250123 20.2508 0.262044 20.2899 0.284267 20.3231C0.30649 20.3563 0.338026 20.3822 0.374921 20.3976C0.411816 20.413 0.452427 20.4171 0.491661 20.4095C0.530896 20.4019 0.567008 20.3828 0.595469 20.3548L10.1875 11.0004L0.595469 1.64507C0.567008 1.61701 0.530896 1.59798 0.491661 1.59036C0.452427 1.58274 0.411816 1.58687 0.374921 1.60224C0.338026 1.61761 0.30649 1.64353 0.284267 1.67675C0.262044 1.70997 0.250123 1.74901 0.25 1.78898ZM14.2094 7.15663L2.18219 0.530384L2.17469 0.526165C1.9675 0.413665 1.77062 0.693978 1.94031 0.857103L11.3683 9.8721L14.2094 7.15663ZM1.94125 21.1437C1.77062 21.3068 1.9675 21.5871 2.17562 21.4746L2.18312 21.4704L14.2094 14.8441L11.3683 12.1277L1.94125 21.1437ZM19.0647 9.82851L15.7061 7.97882L12.5481 11.0004L15.7061 14.0205L19.0647 12.1723C19.9783 11.6674 19.9783 10.3334 19.0647 9.82851Z" fill="#017BF7"/>
</svg>
