<svg width="19" height="25" viewBox="0 0 19 25" fill="none" xmlns="http://www.w3.org/2000/svg">
<path fill-rule="evenodd" clip-rule="evenodd" d="M9.62174 0.458252C6.56117 0.458252 4.08008 2.93934 4.08008 5.99992C4.08008 9.0605 6.56117 11.5416 9.62174 11.5416C12.6823 11.5416 15.1634 9.0605 15.1634 5.99992C15.1634 2.93934 12.6823 0.458252 9.62174 0.458252ZM5.83008 5.99992C5.83008 3.90584 7.52766 2.20825 9.62174 2.20825C11.7158 2.20825 13.4134 3.90584 13.4134 5.99992C13.4134 8.094 11.7158 9.79158 9.62174 9.79158C7.52766 9.79158 5.83008 8.094 5.83008 5.99992Z" fill="white"/>
<path fill-rule="evenodd" clip-rule="evenodd" d="M6.12175 13.2916C3.06117 13.2916 0.580078 15.7727 0.580078 18.8333C0.580078 21.8939 3.06117 24.375 6.12175 24.375H13.1217C16.1823 24.375 18.6634 21.8939 18.6634 18.8333C18.6634 15.7727 16.1823 13.2916 13.1217 13.2916H6.12175ZM2.33008 18.8333C2.33008 16.7392 4.02767 15.0416 6.12175 15.0416H13.1217C15.2158 15.0416 16.9134 16.7392 16.9134 18.8333C16.9134 20.9274 15.2158 22.625 13.1217 22.625H6.12175C4.02767 22.625 2.33008 20.9274 2.33008 18.8333Z" fill="#0074E0"/>
</svg>
