<svg width="20" height="20" viewBox="0 0 20 20" fill="none" xmlns="http://www.w3.org/2000/svg">
<path d="M18.028 3.35903C17.3488 3.67987 16.193 4.28153 15.6121 4.39653C15.5896 4.40237 15.5713 4.40987 15.5496 4.4157C14.8721 3.74737 13.9438 3.3332 12.9163 3.3332C10.8455 3.3332 9.16629 5.01237 9.16629 7.0832C9.16629 7.19237 9.15712 7.3932 9.16629 7.49987C6.48462 7.49987 4.52629 6.1007 3.06045 4.30237C2.86462 4.0607 2.65629 4.18653 2.61295 4.3582C2.51545 4.74653 2.48212 5.3957 2.48212 5.85903C2.48212 7.02653 3.39462 8.1732 4.81545 8.88403C4.55379 8.95153 4.26545 8.99987 3.96545 8.99987C3.61212 8.99987 3.20545 8.90737 2.84962 8.7207C2.71795 8.65153 2.43379 8.6707 2.51795 9.00737C2.85545 10.3565 4.39545 11.304 5.77129 11.5799C5.45879 11.764 4.79212 11.7265 4.48545 11.7265C4.37212 11.7265 3.97795 11.6999 3.72295 11.6682C3.49045 11.6399 3.13295 11.6999 3.43212 12.1532C4.07462 13.1257 5.52795 13.7365 6.77879 13.7599C5.62712 14.6632 3.74379 14.9932 1.93962 14.9932C1.57462 14.9849 1.59295 15.4007 1.88712 15.5549C3.21795 16.2532 5.39795 16.6665 6.95545 16.6665C13.1471 16.6665 16.6663 11.9474 16.6663 7.49903C16.6663 7.42737 16.6646 7.27737 16.6621 7.12653C16.6621 7.11153 16.6663 7.09737 16.6663 7.08237C16.6663 7.05987 16.6596 7.0382 16.6596 7.0157C16.6571 6.90237 16.6546 6.79653 16.6521 6.74153C17.143 6.38737 17.8946 5.77237 18.2746 5.30153C18.4038 5.14153 18.2996 4.94737 18.1238 5.0082C17.6713 5.1657 16.8888 5.4707 16.3988 5.52903C17.3796 4.87987 17.8646 4.31487 18.2813 3.68737C18.4238 3.4732 18.2455 3.2557 18.028 3.35903Z" fill="white"/>
</svg>
